<svg xmlns="http://www.w3.org/2000/svg" xml:space="preserve" width="191.146" height="48.722" style="shape-rendering:geometricPrecision;text-rendering:geometricPrecision;image-rendering:optimizeQuality;fill-rule:evenodd;clip-rule:evenodd" viewBox="0 0 5057.4 1289.1"><defs><style>.fil0,.fil3{fill:#009035}.fil0{fill-rule:nonzero}</style></defs><g id="Layer_x0020_1"><g id="_1655183160240"><path class="fil0" d="M3683.29 1186.51H-2.83v-41.13h3686.12zM3846.67 1277.34H-2.83v-36.97h3849.5z"/><path d="M669.45 986.59H542.94l36.31-253.62-104.82 253.62H353.1l-32.2-253.62-36.31 253.62H158.07l70.8-494.48h179.14l38.32 269.51 114.09-269.51h179.84l-70.81 494.48zm551.84 0H811.8l70.79-494.48h400.42l-15.7 109.62H999.74l-10.16 71.13h248.89l-15.72 109.96H973.82l-13.41 93.82h276.65l-15.77 109.95zm609.87-242.8c-5.56 38.91-15.88 73.21-30.99 103.16-18.14 35.78-41.14 65.26-68.98 88.41-21.13 17.48-48.88 31.08-83.06 40.76-24.64 7.01-56.31 10.47-95 10.47h-205.04l70.8-494.48h199.41c40.86 0 74.55 3.55 100.91 10.82 27.93 7.6 51.7 22.56 71.16 44.78 18.83 21.41 32.05 48.14 39.74 80.38 7.46 30.03 7.8 68.6 1.05 115.7zm-136.13-3.81c8.29-57.78 2.88-96.34-16.12-115.61-8.63-8.83-20.8-14.83-36.53-18.29-2.35-.46-11.69-1.27-27.93-2.66-14.22-1.14-30.61-1.69-49.4-1.69h-27.96l-39.37 274.91h58.04c27.63 0 46.53-1.15 56.55-3.34 27.35-6.12 47.81-23.73 61.47-52.97 9.42-20.02 16.47-46.84 21.25-80.35zm639.05 246.61h-409.52l70.79-494.48h400.41l-15.66 109.62h-267.56l-10.2 71.13h248.89l-15.72 109.96h-248.9l-13.44 93.82h276.65l-15.74 109.95zm559.44-150.46c-3.99 29.44-16.71 57.33-38.22 83.68-20.65 25.22-48.4 44.44-83.1 57.67-31.15 11.87-69.81 17.98-116.02 18.2-66.37.46-115.73-14.28-147.92-44.22-32.33-29.79-48.43-78.28-48.49-145.28l131.99-12.55c1.57 37.3 8.87 61.94 21.82 73.68 12.91 11.86 32.66 17.73 59.14 17.73 27.41 0 48.77-5.31 64-15.88 14.03-9.67 21.82-20.49 23.55-32.69.99-6.92-.56-12.92-4.8-17.86-2.59-4.49-11.08-9.55-25.46-15.18-4.29-1.52-29.7-8.18-76.15-19.93-53.76-13.48-91.25-29.82-112.32-49.17-30.2-27.97-42.25-62.86-36.19-104.98 4.17-29.14 16.41-55.25 36.74-78.18 19.32-21.63 43.83-38.23 73.55-49.73 29.85-11.65 65.57-17.52 107.55-17.73 65.2-.47 113.5 13.59 144.99 42.15 15.68 14.37 27.01 30.97 34 49.59 6.79 17.75 8.07 44.23 4.17 79.55l-132.26 5.44c-1.53-28.8-7.05-47.22-16.39-55.16-9.45-7.94-26.39-11.96-50.92-11.96-29.7 0-50.65 4.83-62.86 14.49-4.54 3.59-7.35 8.75-8.56 15.55-.4 5.99 2.03 11.52 7.45 16.47 7.53 6.77 34.24 15.64 80 26.48 45.77 10.91 78.46 21.17 98.28 30.84 34.61 17.15 57.23 40.89 67.76 71.14 6.68 19.35 8.25 42.03 4.67 67.84zm634.84-344.02-237.05 289.44-29.36 205.04H3129.1l29.45-205.76-153.56-288.72h157.14l82.27 167.63 128.52-167.63h155.44z" style="fill:#fff"/><path d="M3950.62 1070.98s8.42-100.94-43.74-229.72c0 0-74.95-182.36 64.29-238.17 39.39-15.78 83.06-15.02 123.14-1.23 37.85 13.03 92.5 29.85 151.69-1.2 12.62-6.62 46.33-14.62 60.48-14.25 60.22 1.62 197.42 53.65 137.54 241.25 0 0-49.22 102.35-45.85 257.24 0 0 10.09 106.16-82.44 174.03 0 0-22.51 18.71-38.91-3.48-16.4-22.19-39.12-221.24-95.7-229.72 0 0-50.47-27.85-97.58 215.8 0 0-3.37 24.36-33.65 5.22 0 0-55.74-50.04-34.28-136.18 0 0 30.91-116.17 148.9-110.94 0 0 63.09 3.91 69.4-22.19 0 0 2.52-8.49-2.52-21.54 0 0-11.36-17.62 8.21-33.28 0 0 3.78-13.06-10.11-18.28 0 0 16.41-9.78 12.63-22.84 0 0-32.18-21.53-.64-43.73 0 0 18.3-11.74-3.15-30.01 0 0-44.8-24.15-46.06-78.32 0 0-6.94-73.09-58.67-107.68 0 0 72.55 178.82-104.59 298.41 0 0-72.08 60.31-78.39 150.81z" style="fill:#fff;fill-rule:nonzero"/><path class="fil3" d="M4436.02 422.75c98.57-4.06 224.22-85.83 276.83-85.86 231.52-.04 382.23 225.9 332.08 451.22-67.59 303.54-293.8 508.35-597.59 508.35-9.46 0-20.65-35.21-11.29-36.04 447.92-38.78 603.07-865.17 119.91-827.52-97.13 7.58-183.95 61.23-202.7 72.9-12.33 7.64-56.73-10.92-56.73-21.45 0-62.32-174.82-78.15-276.52-43.46-101.67 34.72-130.2 104.38-97.64 49.01 27.36-46.53 113.81-224.36 470.15-118.77 33.38 9.88-16.94 20.79-4.85 42.06 5.5 9.67 29.66 10.32 48.35 9.56zM4541.09 56.44c52.69 122.21 21.86 178.71-55.82 266.44 44.91-82.25-35.66-320.41 55.82-266.44zM4174.98 7.39l232.16 152.95c39.2 43.29 55.83 97.87 53.7 161.85-61.92-38.76-160.45-55.65-240.68-83.46-8.6-26.5 3.89-35.17 37.52-25.98l141.44 47.97c-10.08-8.05-57.84-174.11-118.73-136.38-20.93 12.93-39.81 21.19-60.02 8.88-41.05-35.96-53.14-78.61-45.39-125.83z"/></g></g></svg>